<?xml version="1.0" encoding="UTF-8"?>
<svg version="1.1" xmlns="http://www.w3.org/2000/svg" width="31" height="33">
<path d="M0 0 C10.23 0 20.46 0 31 0 C31 10.89 31 21.78 31 33 C20.77 33 10.54 33 0 33 C0 22.11 0 11.22 0 0 Z " fill="#E6C9BB" transform="translate(0,0)"/>
<path d="M0 0 C3.51996201 -0.20488457 7.03837879 -0.32813842 10.5625 -0.4375 C11.55314453 -0.49615234 12.54378906 -0.55480469 13.56445312 -0.61523438 C20.80270115 -0.78356572 20.80270115 -0.78356572 24.24389648 1.46850586 C27.92188919 5.0150243 29.87040154 7.68646334 30 13 C28.35 13.99 26.7 14.98 25 16 C24.566875 14.906875 24.13375 13.81375 23.6875 12.6875 C22.49320901 9.91203502 21.46894351 7.85170763 19 6 C18.01 5.67 17.02 5.34 16 5 C16 8.63 16 12.26 16 16 C13.03 15.505 13.03 15.505 10 15 C10.33 16.65 10.66 18.3 11 20 C10.01 20 9.02 20 8 20 C8 18.02 8 16.04 8 14 C7.01 14.495 7.01 14.495 6 15 C6 16.98 6 18.96 6 21 C5.34 21 4.68 21 4 21 C4 21.66 4 22.32 4 23 C3.01 22.67 2.02 22.34 1 22 C-0.20029908 19.59940183 -0.11459743 18.10639351 -0.09765625 15.4296875 C-0.09443359 14.53378906 -0.09121094 13.63789063 -0.08789062 12.71484375 C-0.07951172 11.77769531 -0.07113281 10.84054687 -0.0625 9.875 C-0.05798828 8.93011719 -0.05347656 7.98523438 -0.04882812 7.01171875 C-0.03702357 4.67441613 -0.02055759 2.33723939 0 0 Z " fill="#34438D" transform="translate(0,0)"/>
<path d="M0 0 C2.97 0 5.94 0 9 0 C9 10.89 9 21.78 9 33 C-1.23 33 -11.46 33 -22 33 C-22 28.71 -22 24.42 -22 20 C-20.68 20.99 -19.36 21.98 -18 23 C-17.67 22.34 -17.34 21.68 -17 21 C-14 25.625 -14 25.625 -14 29 C-12.33333333 29.33333333 -10.66666667 29.66666667 -9 30 C-7.7934375 30.433125 -7.7934375 30.433125 -6.5625 30.875 C-3.72698001 31.26311934 -3.72698001 31.26311934 -0.8125 28.9375 C2.83580723 25.55179586 3.91030289 22.06303342 4.125 17.125 C4.08375 16.42375 4.0425 15.7225 4 15 C5.32 14.34 6.64 13.68 8 13 C6.00503547 7.75009334 3.76315833 4.16998625 0 0 Z " fill="#C7A692" transform="translate(22,0)"/>
<path d="M0 0 C0 2.97 0 5.94 0 9 C-2.97 8.505 -2.97 8.505 -6 8 C-5.67 9.65 -5.34 11.3 -5 13 C-5.99 13 -6.98 13 -8 13 C-8 11.02 -8 9.04 -8 7 C-8.99 7.495 -8.99 7.495 -10 8 C-10 9.98 -10 11.96 -10 14 C-10.66 14 -11.32 14 -12 14 C-12 14.66 -12 15.32 -12 16 C-12.99 15.67 -13.98 15.34 -15 15 C-16.58873246 11.82253509 -16.41026221 8.45987798 -16 5 C-14.5 2.5 -14.5 2.5 -13 1 C-13 1.66 -13 2.32 -13 3 C-12.14535156 2.7834375 -11.29070313 2.566875 -10.41015625 2.34375 C-9.30542969 2.0653125 -8.20070313 1.786875 -7.0625 1.5 C-5.96035156 1.2215625 -4.85820312 0.943125 -3.72265625 0.65625 C-1 0 -1 0 0 0 Z " fill="#404271" transform="translate(16,7)"/>
<path d="M0 0 C1.32 0.99 2.64 1.98 4 3 C4.33 2.34 4.66 1.68 5 1 C8 5.625 8 5.625 8 9 C9.66666667 9.33333333 11.33333333 9.66666667 13 10 C13.78375 10.28875 14.5675 10.5775 15.375 10.875 C19.50337113 11.0715891 21.92988804 8.55695204 25 6 C24.34 8.31 23.68 10.62 23 13 C15.41 13 7.82 13 0 13 C0 8.71 0 4.42 0 0 Z " fill="#AC7680" transform="translate(0,20)"/>
<path d="M0 0 C5.61 0 11.22 0 17 0 C15 5 15 5 12.9765625 6.14453125 C12.20054688 6.36496094 11.42453125 6.58539062 10.625 6.8125 C9.46871094 7.16248047 9.46871094 7.16248047 8.2890625 7.51953125 C6 8 6 8 2 8 C1.67 9.32 1.34 10.64 1 12 C0.67 12 0.34 12 0 12 C0 8.04 0 4.08 0 0 Z " fill="#354898" transform="translate(0,0)"/>
<path d="M0 0 C7 7 7 7 7.125 10.125 C7.08375 11.07375 7.0425 12.0225 7 13 C4.69 13 2.38 13 0 13 C0 8.71 0 4.42 0 0 Z " fill="#D2B967" transform="translate(0,20)"/>
<path d="M0 0 C0 2.97 0 5.94 0 9 C-2.97 8.505 -2.97 8.505 -6 8 C-5.67 9.65 -5.34 11.3 -5 13 C-5.99 13 -6.98 13 -8 13 C-8.33 9.7 -8.66 6.4 -9 3 C-1.125 0 -1.125 0 0 0 Z " fill="#48426C" transform="translate(16,7)"/>
<path d="M0 0 C3.07531556 0.33246655 4.61832506 0.63104756 6.875 2.8125 C8 5 8 5 7.75 7.0625 C7.5025 7.701875 7.255 8.34125 7 9 C6.67 9.99 6.34 10.98 6 12 C5.01 11.67 4.02 11.34 3 11 C2.67 10.34 2.34 9.68 2 9 C1.01 9.495 1.01 9.495 0 10 C0 6.7 0 3.4 0 0 Z " fill="#C09E93" transform="translate(16,5)"/>
<path d="M0 0 C2.97 0 5.94 0 9 0 C8.360625 0.763125 7.72125 1.52625 7.0625 2.3125 C4.85767219 4.88246713 4.85767219 4.88246713 4 8 C3.34 8 2.68 8 2 8 C1.67 9.32 1.34 10.64 1 12 C0.67 12 0.34 12 0 12 C0 8.04 0 4.08 0 0 Z " fill="#404B8F" transform="translate(0,0)"/>
<path d="M0 0 C1.67542976 0.28604898 3.34385343 0.61781233 5 1 C5.33 2.98 5.66 4.96 6 7 C3.525 8.485 3.525 8.485 1 10 C0.63883954 8.5225254 0.28624952 7.04295325 -0.0625 5.5625 C-0.25972656 4.73878906 -0.45695312 3.91507813 -0.66015625 3.06640625 C-0.82837891 2.04353516 -0.82837891 2.04353516 -1 1 C-0.67 0.67 -0.34 0.34 0 0 Z " fill="#2D3770" transform="translate(24,6)"/>
<path d="M0 0 C2.97 0 5.94 0 9 0 C9 2.31 9 4.62 9 7 C6.62051228 6.82374165 5.29774151 6.30280227 3.62109375 4.59765625 C2.37884514 3.09350908 1.18623944 1.54870149 0 0 Z " fill="#E3ECB8" transform="translate(22,0)"/>
<path d="M0 0 C-2.38580296 2.88807727 -4.29060747 3.61954948 -8 4 C-8.66 3.67 -9.32 3.34 -10 3 C-10.33 3.66 -10.66 4.32 -11 5 C-11.66 4.67 -12.32 4.34 -13 4 C-13 3.34 -13 2.68 -13 2 C-11.5882217 1.46605821 -10.17029756 0.94834896 -8.75 0.4375 C-7.96109375 0.14746094 -7.1721875 -0.14257812 -6.359375 -0.44140625 C-3.80896548 -1.04522837 -2.44677771 -0.8473932 0 0 Z " fill="#4954A0" transform="translate(16,6)"/>
<path d="M0 0 C0.433125 0.495 0.86625 0.99 1.3125 1.5 C2.99740483 3.33218192 2.99740483 3.33218192 6 3 C6 4.32 6 5.64 6 7 C3.36 7 0.72 7 -2 7 C-1.34 4.69 -0.68 2.38 0 0 Z " fill="#F2DBCE" transform="translate(25,26)"/>
<path d="M0 0 C0 2.64 0 5.28 0 8 C-1.32 8 -2.64 8 -4 8 C-4 5.69 -4 3.38 -4 1 C-1 0 -1 0 0 0 Z " fill="#CFB565" transform="translate(31,21)"/>
<path d="M0 0 C4.0084034 2.0042017 5.41409657 3.49055963 8 7 C6.68 7 5.36 7 4 7 C3.34 7.66 2.68 8.32 2 9 C1.34 6.03 0.68 3.06 0 0 Z " fill="#555F79" transform="translate(20,0)"/>
<path d="M0 0 C2.89932357 2.39509338 3.50168276 4.31245243 4 8 C5.65 8.33 7.3 8.66 9 9 C9 9.33 9 9.66 9 10 C7.35 10 5.7 10 4 10 C3.67 10.66 3.34 11.32 3 12 C1.82923301 8.01939223 0.74250597 4.08378283 0 0 Z " fill="#BD9D92" transform="translate(4,21)"/>
<path d="M0 0 C2.97 0 5.94 0 9 0 C7.515 1.485 7.515 1.485 6 3 C3.3125 2.6875 3.3125 2.6875 1 2 C1.33 2.99 1.66 3.98 2 5 C1.01 5.495 1.01 5.495 0 6 C0 4.02 0 2.04 0 0 Z " fill="#988DA3" transform="translate(0,0)"/>
<path d="M0 0 C-0.33 0.99 -0.66 1.98 -1 3 C-3.31 3.33 -5.62 3.66 -8 4 C-8 3.34 -8 2.68 -8 2 C-5.09399739 0.74335022 -3.20395416 0 0 0 Z " fill="#C78686" transform="translate(21,23)"/>
<path d="M0 0 C0.33 0.66 0.66 1.32 1 2 C1.66 2 2.32 2 3 2 C2.34 3.65 1.68 5.3 1 7 C0.01 7 -0.98 7 -2 7 C-1.42415568 4.61435923 -0.77772405 2.33317216 0 0 Z " fill="#283981" transform="translate(2,8)"/>
<path d="M0 0 C2.475 0.495 2.475 0.495 5 1 C5.33 1.99 5.66 2.98 6 4 C4.02 4.33 2.04 4.66 0 5 C0 3.35 0 1.7 0 0 Z " fill="#CAB1B0" transform="translate(16,5)"/>
<path d="M0 0 C0 2.97 0 5.94 0 9 C-0.33 9 -0.66 9 -1 9 C-1 7.35 -1 5.7 -1 4 C-3.97 3.505 -3.97 3.505 -7 3 C-1 0 -1 0 0 0 Z " fill="#434B85" transform="translate(16,7)"/>
</svg>
